# xmcd
# Track frame offsets:
# 150
# 11378
# 22507
# 40169
# 51113
# 61252
# 75235
# 87944
# 95296
# 111419
# 123122
# 133566
# 144554
# 154827
# 168424
# 178091
#
# Disc length: 2558 seconds
# Revision: 0
# Processed by: cddbd v1.5.2PL0 Copyright (c) Steve Scherf et al.
# Submitted via: VisiTrax 2.10.3.257 - For more info visit www.synapsa.com
#
DISCID=ba09fc10
DTITLE=Various Artist - Queens of Country Disk 2
DYEAR=2003
DGENRE=
TTITLE0=Murray, Anne - The last thing on my mind
TTITLE1=Parton, Dolly - It wasn't god who made honky tonk angels
TTITLE2=Anderson, Lynn - Blue Bayou
TTITLE3=Cline, Patsy - I cried all the way to the alter
TTITLE4=Riley, Jeannie C - The girl most likely
TTITLE5=Fairchild, Barbara - Crazy love
TTITLE6=West, Dottie - Here comes my baby
TTITLE7=Mandrell, Barbara - Kentucky means paradise
TTITLE8=Spears, Billy Jo - Queen of the silver dollar
TTITLE9=Fargo, Donna - Wishful Thinking
TTITLE10=Howard, Jan - I wish I could fall in love again
TTITLE11=Stone, Judy - Would you lay with me in a field of stone
TTITLE12=Posey, Sandy - What a woman in love won't do
TTITLE13=Lynn, Loretta - Let your love flow
TTITLE14=Anderson, Lynn - Snowbird
TTITLE15=Nina Martin - Love me tender
EXTD=
EXTT0=
EXTT1=
EXTT2=
EXTT3=
EXTT4=
EXTT5=
EXTT6=
EXTT7=
EXTT8=
EXTT9=
EXTT10=
EXTT11=
EXTT12=
EXTT13=
EXTT14=
EXTT15=
PLAYORDER=
